<svg xmlns="http://www.w3.org/2000/svg" width="36" height="36" viewBox="0 0 36 36" fill="none">
  <path fill-rule="evenodd" clip-rule="evenodd" d="M5.60087 35.5051C4.20337 35.5051 2.87587 34.9501 1.87587 33.9626C0.875874 32.9751 0.333374 31.6351 0.333374 30.2376V5.76262C0.333374 4.36512 0.888374 3.03762 1.87587 2.03762C2.86337 1.03762 4.20337 0.495117 5.60087 0.495117H30.0759C31.4734 0.495117 32.8009 1.05012 33.8009 2.03762C34.8009 3.02512 35.3434 4.36512 35.3434 5.76262V30.2376C35.3434 31.6351 34.7884 32.9626 33.8009 33.9626C32.8134 34.9626 31.4734 35.5051 30.0759 35.5051H5.60087ZM26.9759 20.7301H23.2759V32.9551H30.0759C30.433 32.9561 30.7868 32.8865 31.117 32.7503C31.4471 32.6141 31.7471 32.4139 31.9996 32.1614C32.2522 31.9088 32.4523 31.6089 32.5885 31.2787C32.7248 30.9486 32.7944 30.5948 32.7934 30.2376V5.76262C32.7937 5.40566 32.7236 5.05214 32.5872 4.72229C32.4507 4.39244 32.2506 4.09273 31.9982 3.84032C31.7458 3.58791 31.4461 3.38776 31.1162 3.2513C30.7864 3.11485 30.4328 3.04479 30.0759 3.04512H5.60087C4.88076 3.0471 4.1907 3.33404 3.6815 3.84324C3.1723 4.35244 2.88535 5.0425 2.88337 5.76262V30.2376C2.88535 30.9577 3.1723 31.6478 3.6815 32.157C4.1907 32.6662 4.88076 32.9531 5.60087 32.9551H19.2009V20.7301H15.1259V16.6551H19.2009V14.4651C19.2009 10.3151 21.2209 8.49012 24.6759 8.49012C26.2934 8.49012 27.1634 8.60762 27.5759 8.66512L27.6009 8.66762V12.5676H25.2509C24.0659 12.5676 23.5059 13.0751 23.3359 14.0976C23.295 14.364 23.2758 14.6332 23.2784 14.9026V16.6451H27.5534L26.9709 20.7201L26.9759 20.7301Z" fill="white"/>
</svg>