<svg version="1.1" xmlns="http://www.w3.org/2000/svg" style="display: block;" viewBox="0 0 2048 2048" width="512" height="512">
<path transform="translate(0,0)" fill="rgb(0,0,0)" d="M 1442.64 278.26 C 1446.38 278.28 1450.18 278.714 1453.7 280.03 C 1460.04 282.397 1465.46 287.869 1468.15 294.044 C 1470.93 300.42 1470.77 307.452 1467.99 313.795 C 1463 325.196 1427.91 357.792 1416.93 365.535 C 1413.82 367.725 1410.15 369.021 1406.6 370.326 C 1402.19 370.272 1398.57 369.555 1394.57 367.625 C 1388.49 364.689 1382.57 359.4 1380.45 352.822 C 1378.08 345.452 1379.85 337.436 1383.64 330.873 C 1391.29 317.615 1420.96 290.001 1433.91 281.616 C 1436.59 279.879 1439.57 279.045 1442.64 278.26 z"/>
<path transform="translate(0,0)" fill="rgb(0,0,0)" d="M 1336.79 53.2165 C 1341.69 52.479 1346.53 52.5528 1351.28 54.1248 C 1357.84 56.2991 1363.32 60.7658 1366.15 67.1353 C 1368.9 73.3034 1368.23 78.4579 1366.97 84.8705 C 1362.73 106.366 1350.41 137.63 1343.15 159.447 C 1332.72 190.781 1323.51 223.356 1311.54 254.07 C 1308.03 263.07 1303.05 266.817 1294.37 270.699 C 1288.79 271.624 1283.88 271.514 1278.58 269.412 C 1272.62 267.043 1267.3 263.211 1264.92 257.036 C 1262.83 251.618 1262.81 245.379 1263.99 239.759 C 1266.33 228.541 1271.02 217.203 1274.61 206.311 L 1297.6 137.071 A 2647.85 2647.85 0 0 0 1311.9 93.1102 C 1314.5 84.9037 1316.71 75.9699 1320.16 68.1036 C 1323.74 59.9603 1328.68 56.3838 1336.79 53.2165 z"/>
<path transform="translate(0,0)" fill="rgb(0,0,0)" d="M 949.577 218.868 C 926.448 177.918 906.447 135.35 920.122 87.2528 A 112.14 112.14 0 0 1 973.38 20.5701 C 1001.8 5.02558 1037.13 2.65441 1067.91 11.9311 A 110.558 110.558 0 0 1 1132.94 65.9992 C 1148.7 95.7471 1149.37 130.38 1139.38 162.083 C 1132.96 182.465 1121.59 199.794 1112.45 218.842 C 1134.18 232.962 1149.72 251.846 1155.32 277.563 C 1158.29 291.169 1157.71 305.303 1157.37 319.134 C 1274.84 340.186 1378.92 416.719 1446.25 513.419 C 1493.25 580.91 1521.99 661.097 1533.59 742.255 C 1535.85 758.067 1538.57 774.959 1538.31 790.942 C 1563.97 775.825 1591.62 768.932 1621.07 776.583 C 1643 782.278 1662.5 796.249 1673.83 816.022 C 1686.01 837.28 1686.07 862.115 1679.63 885.193 C 1672.91 909.265 1656.05 941.261 1645.73 965.144 L 1576.04 1128.8 A 9586.33 9586.33 0 0 0 1493.97 1328.74 C 1476.17 1373.55 1460.07 1419.75 1439.33 1463.28 A 429.147 429.147 0 0 1 1390.9 1542.52 C 1356.97 1586.27 1315.27 1622.74 1274.84 1660.27 C 1251.16 1682.25 1201.9 1724.33 1187.89 1751.13 C 1177.95 1770.14 1175.2 1795.36 1170.58 1816.16 L 1135.32 1969.2 C 1131.64 1984.95 1126 2017.5 1120.54 2030.66 C 1117.42 2038.15 1112.24 2041.97 1105.35 2045.8 A 294.098 294.098 0 0 1 1101.33 2048 L 1092.03 2048 C 1086.37 2044.57 1080.23 2040.98 1076.37 2035.46 C 1070.62 2027.24 1072.85 2017.77 1074.36 2008.61 C 1052.62 2001.6 1030.41 1995.13 1008.22 1989.66 L 759.13 1917.52 C 737.22 1911.23 715.334 1904.62 693.561 1897.87 C 687.833 1896.09 679.691 1892.07 674.509 1891.05 C 671.716 1900.14 668.295 1908.11 659.358 1912.8 A 25.5608 25.5608 0 0 1 639.4 1914.43 A 23.7068 23.7068 0 0 1 625.443 1902.31 C 622.792 1896.94 622.224 1890.85 622.854 1884.95 C 624.393 1870.54 630.121 1854.63 633.558 1840.42 L 659.057 1732.44 C 664.297 1710.48 671.823 1687.51 673.692 1665.03 C 674.902 1650.47 673.676 1636.26 669.423 1622.27 C 659.552 1589.81 635.961 1561.8 617.217 1533.97 C 599.228 1507.26 581.743 1480.44 567.308 1451.61 C 553.232 1423.49 543.749 1393.98 533.41 1364.37 A 1572.77 1572.77 0 0 0 506.661 1294.22 A 1876.03 1876.03 0 0 0 465.36 1203.76 C 454.531 1181.09 442.925 1158.67 435.088 1134.74 C 426.645 1108.95 422.699 1081.51 417.83 1054.86 A 7516.83 7516.83 0 0 0 398.864 953.637 A 5176.87 5176.87 0 0 0 381.67 867.071 C 378.285 850.687 373.489 833.478 371.913 816.848 C 370.701 804.055 371.627 791.673 376.121 779.569 C 383.413 759.928 399.393 743.21 418.406 734.551 C 441.434 724.065 469.905 723.732 493.417 732.896 C 516.928 742.06 530.695 758.976 547.582 776.6 A 595.561 595.561 0 0 1 791.4 396.954 C 823.634 374.726 867.491 349.21 905.285 339.032 C 903.45 301.426 900.823 265.177 928.1 235.3 C 934.378 228.424 941.257 223.03 949.577 218.868 z"/>
<path transform="translate(0,0)" fill="rgb(154,69,179)" d="M 983.898 1289.13 C 993.679 1289.86 1003.36 1290.13 1013.16 1290.23 C 1013.16 1306.11 1012.43 1322.39 1013.8 1338.2 C 1003.87 1338.18 993.915 1338.29 983.991 1338.12 A 1007.34 1007.34 0 0 1 983.898 1289.13 z"/>
<path transform="translate(0,0)" fill="rgb(247,1,0)" d="M 982.191 368.908 C 992.453 366.66 1002.74 365.349 1013.15 364.004 C 1013.16 382.894 1011.68 403.17 1013.95 421.886 C 1003.72 422.542 993.544 424.881 983.56 427.141 C 980.859 413.15 982.375 384.38 982.191 368.908 z"/>
<path transform="translate(0,0)" fill="rgb(179,234,107)" d="M 1120.71 639.565 C 1159.71 643.818 1206.07 678.589 1229.87 708.456 C 1250.79 734.702 1264 765.676 1271.3 798.231 C 1272.62 804.133 1274.9 810.637 1274.49 816.729 C 1274.4 817.919 1274.1 818.92 1273.75 820.05 C 1271.58 821.4 1270.33 821.04 1267.86 821.052 C 1264.34 805.498 1261.12 790.2 1255.52 775.195 C 1237.1 725.795 1198.9 680.743 1151.57 656.823 C 1142.62 652.301 1126.14 648.274 1120.71 639.565 z"/>
<path transform="translate(0,0)" fill="rgb(253,71,83)" d="M 984.092 1151.97 C 993.663 1153.57 1003.91 1155.94 1013.63 1155.45 C 1012.78 1183.9 1013.43 1212.47 1013.29 1240.93 C 1003.59 1240.44 993.529 1240.47 983.918 1239.15 C 982.515 1225.35 983.18 1210.85 983.143 1196.97 C 983.104 1182.19 982.244 1166.64 984.092 1151.97 z"/>
<path transform="translate(0,0)" fill="rgb(254,170,4)" d="M 983.323 478.392 C 993.238 476.311 1003.15 474.087 1013.13 472.372 L 1013.12 546.206 C 1013.13 560.341 1012.22 575.352 1013.91 589.374 C 1004.18 591.932 994.781 595.105 985.296 598.412 C 981.355 584.603 983.827 551.207 983.837 535.72 L 983.323 478.392 z"/>
<path transform="translate(0,0)" fill="rgb(127,202,252)" d="M 1323.01 870.931 L 1354.37 870.779 L 1354.19 871.625 C 1352.5 879.721 1351.81 888.034 1350.39 896.195 C 1347.05 915.49 1342.69 935.036 1336.45 953.617 C 1329.84 973.334 1318.73 992.068 1313 1011.83 A 778.665 778.665 0 0 0 1287.24 987.136 C 1308.06 951.634 1318.55 911.529 1323.01 870.931 z"/>
<path transform="translate(0,0)" fill="rgb(69,167,248)" d="M 1354.37 870.779 L 1384.51 870.973 C 1377.54 925.64 1360.66 982.8 1330.85 1029.64 L 1313 1011.83 C 1318.73 992.068 1329.84 973.334 1336.45 953.617 C 1342.69 935.036 1347.05 915.49 1350.39 896.195 C 1351.81 888.034 1352.5 879.721 1354.19 871.625 L 1354.37 870.779 z"/>
<path transform="translate(0,0)" fill="rgb(179,234,107)" d="M 1282.49 695.101 A 856.382 856.382 0 0 0 1310.06 669.151 C 1334.28 716.53 1350.51 767.361 1351.1 821.033 L 1324.12 821.15 C 1321.53 776.863 1306.18 732.377 1282.49 695.101 z"/>
<path transform="translate(0,0)" fill="rgb(254,209,82)" d="M 1062.06 380.798 A 353.32 353.32 0 0 1 1250.98 459.089 C 1259.65 466.228 1269.95 473.793 1277.05 482.505 C 1278.65 484.475 1279.7 486.389 1280.75 488.689 C 1216.81 439.713 1141.91 417.951 1062.12 416.652 L 1062.06 380.798 z"/>
<path transform="translate(0,0)" fill="rgb(69,167,248)" d="M 1285.69 1057.16 C 1291.4 1062.53 1297.03 1068.03 1302.86 1073.26 C 1290.3 1086.33 1279.11 1100.87 1266.01 1113.38 C 1212.07 1164.88 1138.08 1210.19 1062.14 1215.33 L 1062.12 1203.96 C 1062.74 1204.15 1063.34 1204.43 1063.98 1204.52 C 1070.56 1205.47 1082.8 1200.78 1089.19 1198.77 C 1141.87 1182.24 1194.59 1151.49 1234.28 1113.03 C 1242.84 1104.75 1251.38 1096.29 1259.33 1087.42 C 1266.8 1079.08 1277.05 1062.54 1285.69 1057.16 z"/>
<path transform="translate(0,0)" fill="rgb(251,128,163)" d="M 1031.13 800.181 C 1040.02 799.499 1048.69 800.617 1056.91 804.256 A 43.3998 43.3998 0 0 1 1080.39 829.097 C 1084.27 839.847 1083.59 852.542 1078.48 862.771 C 1071.84 876.036 1059.95 883.28 1046.44 887.924 C 1036.21 889.985 1027.05 888.688 1017.75 883.752 C 1006.84 877.963 997.888 867.79 994.729 855.731 C 991.765 844.418 993.036 831.756 999.058 821.649 C 1006.27 809.554 1017.93 803.5 1031.13 800.181 z"/>
<path transform="translate(0,0)" fill="rgb(151,210,45)" d="M 1310.06 669.151 C 1320.97 658.458 1332.49 648.017 1342.86 636.822 C 1373.94 703.978 1385.68 746.485 1388.36 821.101 L 1351.1 821.033 C 1350.51 767.361 1334.28 716.53 1310.06 669.151 z"/>
<path transform="translate(0,0)" fill="rgb(127,202,252)" d="M 998.73 258.371 C 1001.81 257.892 1005.17 257.977 1008.28 257.866 C 1031.12 257.053 1079.66 253.18 1096.39 269.617 C 1107.85 280.874 1106.55 296.419 1106.62 311.112 C 1089.07 310.411 1071.66 309.888 1054.08 309.892 C 1020.33 309.962 988.114 315.911 955.203 322.677 C 954.872 307.455 952.027 286.988 961.874 274.198 C 970.598 262.868 985.362 259.977 998.73 258.371 z"/>
<path transform="translate(0,0)" fill="rgb(254,167,111)" d="M 765.639 1323.47 C 824.345 1357.84 884.02 1379.07 951.817 1386.21 C 970.92 1388.22 990.119 1389.95 1009.3 1388.02 C 994.609 1403.6 981.746 1419.98 970.88 1438.49 C 959.501 1433.46 910.493 1465.72 881.792 1457.81 A 31.3115 31.3115 0 0 1 877.21 1456.15 C 859.744 1448.27 860.281 1425.1 850.962 1410.43 C 839.199 1391.92 798.089 1359.59 779.904 1343.12 C 775.526 1339.16 767.429 1333.43 764.888 1328.11 C 764.161 1326.59 765.174 1325 765.639 1323.47 z"/>
<path transform="translate(0,0)" fill="rgb(151,210,45)" d="M 1062.23 465.979 C 1150.63 468.566 1230.32 500.244 1291.62 565.373 C 1300.16 574.44 1308.22 584.014 1316.3 593.485 L 1282.59 626.308 C 1275.82 617.345 1268.93 608.422 1261.31 600.158 C 1208.15 542.536 1141.02 510.343 1062.6 506.919 C 1062.7 514.483 1062.75 521.96 1062.22 529.509 A 2685.68 2685.68 0 0 1 1062.23 465.979 z"/>
<path transform="translate(0,0)" fill="rgb(127,202,252)" d="M 1062.05 1132.24 A 1302.63 1302.63 0 0 0 1081.94 1130.06 C 1148.14 1122 1216.7 1082.15 1257.82 1029.79 C 1266.11 1039.54 1276.48 1048.23 1285.69 1057.16 C 1277.05 1062.54 1266.8 1079.08 1259.33 1087.42 C 1251.38 1096.29 1242.84 1104.75 1234.28 1113.03 C 1194.59 1151.49 1141.87 1182.24 1089.19 1198.77 C 1082.8 1200.78 1070.56 1205.47 1063.98 1204.52 C 1063.34 1204.43 1062.74 1204.15 1062.12 1203.96 L 1062.05 1132.24 z"/>
<path transform="translate(0,0)" fill="rgb(179,234,107)" d="M 1062.6 506.919 C 1141.02 510.343 1208.15 542.536 1261.31 600.158 C 1268.93 608.422 1275.82 617.345 1282.59 626.308 A 1415.91 1415.91 0 0 0 1251.14 657.213 C 1250.49 656.523 1249.86 655.826 1249.19 655.157 C 1197.93 603.636 1133.72 582.473 1062.07 581.821 A 3179.77 3179.77 0 0 1 1062.22 529.509 C 1062.75 521.96 1062.7 514.483 1062.6 506.919 z"/>
<path transform="translate(0,0)" fill="rgb(254,254,254)" d="M 1024.07 57.3412 C 1024.74 57.2668 1025.4 57.1676 1026.06 57.1179 C 1042.91 55.8615 1060.53 60.7472 1073.61 71.61 C 1086.21 82.0786 1093.68 97.6669 1094.97 113.893 C 1097.17 141.484 1083.76 172.593 1066.04 193.264 C 1058.13 202.494 1051.41 206.191 1039.48 207.067 C 1027.86 207.125 1014.38 208.467 1004.43 201.325 C 985.764 187.921 970.638 154.487 967.067 132.289 C 964.301 115.089 967.717 96.7486 978.126 82.5705 C 989.263 67.4002 1005.91 60.024 1024.07 57.3412 z"/>
<path transform="translate(0,0)" fill="rgb(251,128,163)" d="M 690.128 870.982 L 780.201 870.943 C 778.835 911.117 786.701 976.638 808.991 1010.24 C 797.539 1022.33 785.063 1033.71 773.152 1045.36 C 762.326 1056 748.669 1066.82 739.84 1079.05 C 733.668 1065.4 726.025 1052.55 720.148 1038.68 C 697.48 985.211 689.644 928.751 690.128 870.982 z"/>
<path transform="translate(0,0)" fill="rgb(254,209,82)" d="M 695.531 821.089 C 703.689 767.915 720.208 716.562 747.094 669.795 C 754.992 656.056 764.13 643.324 772.559 629.949 C 783.542 642.133 796.326 653.271 808.052 664.772 A 6260.24 6260.24 0 0 0 866.732 722.522 C 865.938 725.984 841.248 771.268 838.569 774.357 L 837.914 773.989 C 834 771.743 830.49 769.935 825.978 769.23 C 819.737 768.255 813.646 769.737 808.62 773.582 C 796.647 782.743 790.466 806.918 788.502 821.365 C 757.585 820.477 726.47 821.134 695.531 821.089 z"/>
<path transform="translate(0,0)" fill="rgb(251,128,163)" d="M 768.107 1120.71 C 777.248 1112.97 785.681 1103.67 794.235 1095.24 C 807.893 1081.77 821.842 1068.51 835.073 1054.62 C 877.872 1104.68 918.961 1135.96 984.092 1151.97 C 982.244 1166.64 983.104 1182.19 983.143 1196.97 C 983.18 1210.85 982.515 1225.35 983.918 1239.15 A 76.0444 76.0444 0 0 1 981.521 1238.98 C 895.385 1230.8 822.833 1186.04 768.107 1120.71 z"/>
<path transform="translate(0,0)" fill="rgb(254,254,254)" d="M 952.107 649.157 C 958.369 654.224 964.06 656.942 972.255 656.077 C 985.826 654.644 999.708 645.927 1012.94 641.891 C 1012.95 679.047 1012.19 716.371 1013.07 753.507 C 991.126 757.821 970.606 773.096 958.292 791.499 C 952.143 800.688 947.884 810.922 944.89 821.537 C 909.41 820.751 873.899 821.944 838.423 821.081 C 843.464 809.897 850.004 796.823 845.535 784.427 C 844.081 780.392 841.522 777.396 838.569 774.357 C 841.248 771.268 865.938 725.984 866.732 722.522 C 868.127 723.332 869.584 723.98 871.094 724.546 C 877.096 726.795 883.891 726.071 889.636 723.342 A 26.9191 26.9191 0 0 0 903.973 706.812 C 906.147 699.476 904.763 693.544 901.234 686.984 C 907.626 682.478 913.311 676.719 919.559 671.935 C 927.763 665.655 936.591 660.424 945.312 654.925 C 948.071 653.186 950.053 651.726 952.107 649.157 z"/>
<path transform="translate(0,0)" fill="rgb(69,167,248)" d="M 1434.49 870.63 C 1447.58 871.32 1460.91 870.922 1474.03 871.013 C 1457.81 897.106 1444.08 926.003 1430.54 953.574 A 4431.72 4431.72 0 0 0 1356.89 1112.38 L 1332.36 1167.85 C 1328.22 1177.19 1324.51 1187.54 1318.98 1196.12 C 1311.62 1207.56 1298.89 1216.89 1288.6 1225.59 C 1231.67 1273.69 1166.63 1301.49 1094.23 1317.12 C 1083.58 1319.13 1072.73 1320.5 1062.01 1322.14 L 1062.01 1266.15 C 1076.47 1265.84 1091.16 1262.82 1105.23 1259.6 A 403.43 403.43 0 0 0 1279.31 1169.15 C 1363.57 1095.42 1426.95 983.683 1434.49 870.63 z"/>
<path transform="translate(0,0)" fill="rgb(254,209,82)" d="M 804.49 590.67 C 816.058 579.973 826.708 568.326 838.569 557.936 C 881.502 520.327 929.183 495.572 983.323 478.392 L 983.837 535.72 C 983.827 551.207 981.355 584.603 985.296 598.412 C 972.521 603.395 953.328 608.425 947.334 621.997 C 944.581 628.232 945.188 635.68 947.743 641.89 C 948.854 644.592 950.351 646.844 952.107 649.157 C 950.053 651.726 948.071 653.186 945.312 654.925 C 936.591 660.424 927.763 665.655 919.559 671.935 C 913.311 676.719 907.626 682.478 901.234 686.984 C 891.63 675.323 879.795 664.863 869.033 654.236 L 804.49 590.67 z"/>
<path transform="translate(0,0)" fill="rgb(254,170,4)" d="M 1062.11 359.044 C 1088.47 360.516 1114.7 362.26 1140.7 367.116 C 1230.77 383.947 1310.83 431.959 1371.72 499.911 C 1434.55 570.013 1472.19 660.757 1484.64 753.539 C 1487.69 776.269 1487.85 798.605 1489.55 821.36 C 1472.44 820.899 1455.03 820.626 1437.91 821.239 C 1437.43 711.258 1399.68 601.942 1320.7 523.693 C 1308.09 511.198 1294.44 499.963 1280.75 488.689 C 1279.7 486.389 1278.65 484.475 1277.05 482.505 C 1269.95 473.793 1259.65 466.228 1250.98 459.089 A 353.32 353.32 0 0 0 1062.06 380.798 L 1062.11 359.044 z"/>
<path transform="translate(0,0)" fill="rgb(254,254,254)" d="M 829.425 871 L 945.611 871.039 C 949.901 882.717 955.164 893.603 963.059 903.31 C 974.235 917.051 994.717 932.643 1012.82 934.474 L 1012.87 1040.48 C 1012.88 1062.59 1013.36 1084.82 1012.43 1106.91 C 966.043 1098.41 925.952 1078.37 892.987 1044.21 C 846.849 996.407 828.018 936.418 829.425 871 z"/>
<path transform="translate(0,0)" fill="rgb(253,71,83)" d="M 592.955 821.097 C 595.183 806.205 596.541 791.416 599.438 776.596 A 559.233 559.233 0 0 1 665.183 604.898 C 722.69 508.187 811.943 429.034 917.258 388.395 C 938.453 380.216 960.194 374.469 982.191 368.908 C 982.375 384.38 980.859 413.15 983.56 427.141 C 919.201 443.078 863.143 471.891 812.141 514.216 C 723.96 587.397 656.125 706.292 645.294 821.173 L 592.955 821.097 z"/>
<path transform="translate(0,0)" fill="rgb(179,109,205)" d="M 588.275 870.887 L 640.793 871.023 C 636.882 972.796 667.696 1076.74 732.459 1156.03 C 796.932 1234.97 882.876 1279.21 983.898 1289.13 A 1007.34 1007.34 0 0 0 983.991 1338.12 L 982.32 1338.09 C 882.07 1336.29 786.692 1291.01 717.589 1219.24 C 628.639 1126.85 586.018 997.798 588.275 870.887 z"/>
<path transform="translate(0,0)" fill="rgb(254,254,254)" d="M 1062.19 631.901 C 1082.19 632.213 1101.24 635.374 1120.71 639.565 C 1126.14 648.274 1142.62 652.301 1151.57 656.823 C 1198.9 680.743 1237.1 725.795 1255.52 775.195 C 1261.12 790.2 1264.34 805.498 1267.86 821.052 C 1251.08 821.292 1209.13 817.191 1196.31 827.373 C 1190.7 831.831 1188.11 838.314 1187.68 845.337 C 1187.3 851.667 1188.9 857.725 1193.32 862.407 C 1197.25 866.558 1202.7 868.997 1208.22 870.175 C 1223.09 873.351 1256.55 871.135 1273.25 871.112 C 1271.21 881.462 1270.04 891.872 1267.55 902.147 A 240.508 240.508 0 0 1 1211.14 1007.52 C 1173.9 1048.82 1118.17 1078.4 1062.22 1081.27 L 1062.15 934.963 C 1069.92 933.256 1076.85 930.634 1083.8 926.779 C 1105.93 914.507 1122.33 894.427 1129.06 869.991 C 1135.99 844.843 1133.08 818.678 1119.98 795.967 C 1106.94 773.359 1086.94 759.979 1062.07 753.395 L 1062.19 631.901 z"/>
<path transform="translate(0,0)" fill="rgb(254,167,111)" d="M 1613.15 827.013 C 1621.88 832.092 1630.53 837.806 1633.37 848.16 C 1635.48 855.884 1634.19 864.372 1631.48 871.777 C 1625.8 887.324 1618.23 902.435 1611.43 917.531 A 3324.23 3324.23 0 0 0 1585.11 977.824 L 1491.66 1200.12 A 7506.23 7506.23 0 0 0 1433.71 1343.12 C 1415.6 1389.24 1399.31 1436.38 1373.48 1478.89 C 1353.39 1511.94 1327.54 1540.73 1299.9 1567.63 C 1260.31 1606.18 1160.05 1688.97 1139.92 1734.56 C 1129.53 1758.1 1125.81 1784.37 1120.22 1809.36 L 1090.15 1940.49 C 1085.49 1961.05 1080.84 1989.58 1074.36 2008.61 C 1052.62 2001.6 1030.41 1995.13 1008.22 1989.66 L 1009.55 1989.54 C 1011.19 1988.44 1011.74 1987.04 1012.34 1985.19 C 1018.59 1965.84 1022.36 1940.15 1026.95 1919.72 L 1056.88 1790.99 C 1062.64 1766.26 1066.92 1739.22 1078.46 1716.43 C 1096.23 1681.35 1136.09 1653.07 1165.81 1628.04 A 1810.66 1810.66 0 0 0 1212.33 1587.07 C 1249.69 1552.99 1302.16 1495.6 1327.81 1452.43 C 1362 1394.89 1387.69 1332.15 1415.54 1271.42 L 1556.37 959.203 A 3358.98 3358.98 0 0 0 1591.56 879.779 C 1596.97 866.776 1606.59 836.551 1613.15 827.013 z"/>
<path transform="translate(0,0)" fill="rgb(253,191,150)" d="M 674.509 1891.05 C 674.524 1877.67 681.841 1856.54 685.122 1842.66 L 705.605 1755.96 C 714.3 1719.62 725.571 1682.92 723.968 1645.18 C 721.702 1591.84 690.375 1551.77 661.665 1509.55 C 643.139 1482.31 624.281 1454.24 609.879 1424.56 C 598.221 1400.52 590.459 1374.73 581.729 1349.54 A 1416.39 1416.39 0 0 0 553.152 1274.95 A 2422.25 2422.25 0 0 0 513.872 1188.76 C 502.276 1164.83 488.565 1140.21 481.017 1114.67 C 474.152 1091.45 470.893 1066.97 466.746 1043.15 A 5461.69 5461.69 0 0 0 450.705 956.671 L 431.398 859.551 C 428.163 843.687 423.606 827.46 421.653 811.415 C 420.899 805.216 421.136 800.412 424.303 794.917 C 429.031 786.715 437.483 780.908 446.581 778.61 C 458.272 775.657 470.976 778.07 481.238 784.206 C 505.465 798.692 518.401 828.711 528.431 853.784 C 532.112 862.983 536.177 872.596 537.926 882.388 C 540.117 894.652 538.737 908.511 539.744 921.103 C 542.48 955.337 546.953 988.763 555.276 1022.12 C 584.652 1139.87 659.939 1260.1 765.639 1323.47 C 765.174 1325 764.161 1326.59 764.888 1328.11 C 767.429 1333.43 775.526 1339.16 779.904 1343.12 C 798.089 1359.59 839.199 1391.92 850.962 1410.43 C 860.281 1425.1 859.744 1448.27 877.21 1456.15 A 31.3115 31.3115 0 0 0 881.792 1457.81 C 910.493 1465.72 959.501 1433.46 970.88 1438.49 C 966.532 1446.85 962.369 1455.26 958.84 1464 C 951.806 1481.43 940.476 1515.79 948.759 1533.89 C 951.614 1540.13 957.059 1545.27 963.602 1547.45 C 969.98 1549.57 976.734 1548.79 982.567 1545.47 C 1000.08 1535.5 995.863 1515.62 1000.1 1499.16 C 1004.53 1481.95 1012.95 1465.49 1022.79 1450.78 C 1063.83 1389.44 1135.75 1354.38 1207.19 1343.53 C 1231.77 1339.8 1261.81 1343.08 1284.41 1337.67 C 1297.55 1334.53 1311.04 1326.44 1319.09 1315.49 C 1325.58 1306.66 1329.93 1294.87 1334.59 1284.9 A 5077.59 5077.59 0 0 0 1360.89 1227.49 C 1395.97 1149.92 1429.87 1071.81 1466.55 994.976 C 1487.77 950.519 1514.71 892.378 1544.38 853.704 C 1550.82 845.299 1558.06 838.124 1567.31 832.831 C 1581.72 824.574 1597.15 822.788 1613.15 827.013 C 1606.59 836.551 1596.97 866.776 1591.56 879.779 A 3358.98 3358.98 0 0 1 1556.37 959.203 L 1415.54 1271.42 C 1387.69 1332.15 1362 1394.89 1327.81 1452.43 C 1302.16 1495.6 1249.69 1552.99 1212.33 1587.07 A 1810.66 1810.66 0 0 1 1165.81 1628.04 C 1136.09 1653.07 1096.23 1681.35 1078.46 1716.43 C 1066.92 1739.22 1062.64 1766.26 1056.88 1790.99 L 1026.95 1919.72 C 1022.36 1940.15 1018.59 1965.84 1012.34 1985.19 C 1011.74 1987.04 1011.19 1988.44 1009.55 1989.54 L 1008.22 1989.66 L 759.13 1917.52 C 737.22 1911.23 715.334 1904.62 693.561 1897.87 C 687.833 1896.09 679.691 1892.07 674.509 1891.05 z"/>
</svg>