<svg width="76" height="76" viewBox="0 0 76 76" fill="none" xmlns="http://www.w3.org/2000/svg">
<g id="lucide/compass">
<g id="Vector">
<path d="M51.4267 24.5733L45.7141 41.7081C45.4031 42.6409 44.8793 43.4886 44.184 44.1839C43.4887 44.8792 42.6411 45.403 41.7082 45.7139L24.5734 51.4266L30.2861 34.2918C30.597 33.3589 31.1208 32.5113 31.8161 31.816C32.5114 31.1207 33.359 30.5968 34.2919 30.2859L51.4267 24.5733Z" stroke="white" stroke-width="6.33333" stroke-linecap="round" stroke-linejoin="round"/>
<path d="M38.0001 69.6666C55.4891 69.6666 69.6667 55.4889 69.6667 37.9999C69.6667 20.5109 55.4891 6.33325 38.0001 6.33325C20.511 6.33325 6.33339 20.5109 6.33339 37.9999C6.33339 55.4889 20.511 69.6666 38.0001 69.6666Z" stroke="white" stroke-width="6.33333" stroke-linecap="round" stroke-linejoin="round"/>
</g>
</g>
</svg>
